<mxfile host="65bd71144e">
    <diagram id="Fs5Yc16F_86ejmKFWM_i" name="Page-1">
        <mxGraphModel dx="971" dy="751" grid="1" gridSize="10" guides="1" tooltips="1" connect="1" arrows="1" fold="1" page="1" pageScale="1" pageWidth="850" pageHeight="1100" math="0" shadow="0">
            <root>
                <mxCell id="0"/>
                <mxCell id="1" parent="0"/>
                <mxCell id="2" value="" style="rounded=0;whiteSpace=wrap;html=1;" parent="1" vertex="1">
                    <mxGeometry x="66" y="81" width="120" height="179" as="geometry"/>
                </mxCell>
                <mxCell id="3" value="" style="endArrow=none;html=1;entryX=1;entryY=0.22;entryDx=0;entryDy=0;entryPerimeter=0;" parent="1" target="2" edge="1">
                    <mxGeometry width="50" height="50" relative="1" as="geometry">
                        <mxPoint x="66" y="121" as="sourcePoint"/>
                        <mxPoint x="180" y="120" as="targetPoint"/>
                    </mxGeometry>
                </mxCell>
                <mxCell id="4" value="Client" style="text;html=1;align=center;verticalAlign=middle;whiteSpace=wrap;rounded=0;" parent="1" vertex="1">
                    <mxGeometry x="96" y="87" width="60" height="30" as="geometry"/>
                </mxCell>
                <mxCell id="5" value="" style="rounded=0;whiteSpace=wrap;html=1;" parent="1" vertex="1">
                    <mxGeometry x="383" y="61" width="120" height="179" as="geometry"/>
                </mxCell>
                <mxCell id="6" value="" style="endArrow=none;html=1;entryX=1.005;entryY=0.221;entryDx=0;entryDy=0;entryPerimeter=0;" parent="1" target="5" edge="1">
                    <mxGeometry width="50" height="50" relative="1" as="geometry">
                        <mxPoint x="383" y="101" as="sourcePoint"/>
                        <mxPoint x="433" y="51" as="targetPoint"/>
                    </mxGeometry>
                </mxCell>
                <mxCell id="7" value="Commande" style="text;html=1;align=center;verticalAlign=middle;whiteSpace=wrap;rounded=0;" parent="1" vertex="1">
                    <mxGeometry x="413" y="67" width="60" height="30" as="geometry"/>
                </mxCell>
                <mxCell id="8" value="" style="rounded=0;whiteSpace=wrap;html=1;" parent="1" vertex="1">
                    <mxGeometry x="677" y="157" width="120" height="263" as="geometry"/>
                </mxCell>
                <mxCell id="9" value="" style="endArrow=none;html=1;entryX=0.998;entryY=0.144;entryDx=0;entryDy=0;entryPerimeter=0;exitX=-0.001;exitY=0.144;exitDx=0;exitDy=0;exitPerimeter=0;" parent="1" source="8" target="8" edge="1">
                    <mxGeometry width="50" height="50" relative="1" as="geometry">
                        <mxPoint x="673" y="197" as="sourcePoint"/>
                        <mxPoint x="793.1199999999999" y="198.44" as="targetPoint"/>
                    </mxGeometry>
                </mxCell>
                <mxCell id="10" value="BoÃ®te" style="text;html=1;align=center;verticalAlign=middle;whiteSpace=wrap;rounded=0;" parent="1" vertex="1">
                    <mxGeometry x="707" y="163" width="60" height="30" as="geometry"/>
                </mxCell>
                <mxCell id="11" value="client_id&lt;div&gt;&lt;br&gt;&lt;/div&gt;&lt;div&gt;name&lt;/div&gt;&lt;div&gt;&lt;br&gt;&lt;/div&gt;&lt;div&gt;address&lt;/div&gt;&lt;div&gt;&lt;br&gt;&lt;/div&gt;&lt;div&gt;phone&lt;/div&gt;&lt;div&gt;&lt;br&gt;&lt;/div&gt;&lt;div&gt;email&lt;/div&gt;" style="text;html=1;align=center;verticalAlign=middle;whiteSpace=wrap;rounded=0;" parent="1" vertex="1">
                    <mxGeometry x="76" y="140" width="100" height="100" as="geometry"/>
                </mxCell>
                <mxCell id="12" value="order_id&lt;div&gt;&lt;font color=&quot;#000000&quot;&gt;&lt;br&gt;&lt;/font&gt;&lt;div&gt;order_date&lt;/div&gt;&lt;div&gt;&lt;br&gt;&lt;/div&gt;&lt;div&gt;client_id&lt;/div&gt;&lt;/div&gt;&lt;div&gt;&lt;br&gt;&lt;/div&gt;&lt;div&gt;total_amount&lt;/div&gt;" style="text;html=1;align=center;verticalAlign=middle;whiteSpace=wrap;rounded=0;" parent="1" vertex="1">
                    <mxGeometry x="413" y="122" width="60" height="100" as="geometry"/>
                </mxCell>
                <mxCell id="13" value="" style="endArrow=none;html=1;" parent="1" edge="1">
                    <mxGeometry width="50" height="50" relative="1" as="geometry">
                        <mxPoint x="95" y="139" as="sourcePoint"/>
                        <mxPoint x="165" y="139" as="targetPoint"/>
                    </mxGeometry>
                </mxCell>
                <mxCell id="14" value="" style="endArrow=none;html=1;" parent="1" edge="1">
                    <mxGeometry width="50" height="50" relative="1" as="geometry">
                        <mxPoint x="409" y="139.62" as="sourcePoint"/>
                        <mxPoint x="479" y="139.62" as="targetPoint"/>
                    </mxGeometry>
                </mxCell>
                <mxCell id="15" value="" style="endArrow=none;html=1;" parent="1" edge="1">
                    <mxGeometry width="50" height="50" relative="1" as="geometry">
                        <mxPoint x="702" y="234" as="sourcePoint"/>
                        <mxPoint x="772" y="234" as="targetPoint"/>
                    </mxGeometry>
                </mxCell>
                <mxCell id="16" value="box_id&lt;div&gt;&lt;br&gt;&lt;/div&gt;&lt;div&gt;material&lt;/div&gt;&lt;div&gt;&lt;br&gt;&lt;/div&gt;&lt;div&gt;color&lt;/div&gt;&lt;div&gt;&lt;br&gt;&lt;/div&gt;&lt;div&gt;width&lt;/div&gt;&lt;div&gt;&lt;br&gt;&lt;/div&gt;&lt;div&gt;height&lt;/div&gt;&lt;div&gt;&lt;br&gt;&lt;/div&gt;&lt;div&gt;length&lt;/div&gt;&lt;div&gt;&lt;br&gt;&lt;/div&gt;&lt;div&gt;surface&lt;/div&gt;" style="text;html=1;align=center;verticalAlign=middle;whiteSpace=wrap;rounded=0;" parent="1" vertex="1">
                    <mxGeometry x="707" y="207" width="60" height="210" as="geometry"/>
                </mxCell>
                <mxCell id="17" value="" style="rounded=1;whiteSpace=wrap;html=1;arcSize=50;" parent="1" vertex="1">
                    <mxGeometry x="250" y="141" width="70" height="40" as="geometry"/>
                </mxCell>
                <mxCell id="18" value="" style="endArrow=none;html=1;exitX=0;exitY=0.5;exitDx=0;exitDy=0;entryX=1;entryY=0.5;entryDx=0;entryDy=0;" parent="1" source="17" target="17" edge="1">
                    <mxGeometry width="50" height="50" relative="1" as="geometry">
                        <mxPoint x="235" y="158.5" as="sourcePoint"/>
                        <mxPoint x="325" y="161" as="targetPoint"/>
                    </mxGeometry>
                </mxCell>
                <mxCell id="19" value="passer" style="text;html=1;align=center;verticalAlign=middle;whiteSpace=wrap;rounded=0;" parent="1" vertex="1">
                    <mxGeometry x="253" y="135" width="60" height="30" as="geometry"/>
                </mxCell>
                <mxCell id="21" value="" style="rounded=1;whiteSpace=wrap;html=1;arcSize=50;" parent="1" vertex="1">
                    <mxGeometry x="550" y="161" width="70" height="40" as="geometry"/>
                </mxCell>
                <mxCell id="22" value="" style="endArrow=none;html=1;entryX=1;entryY=0.5;entryDx=0;entryDy=0;exitX=0;exitY=0.5;exitDx=0;exitDy=0;" parent="1" source="21" target="21" edge="1">
                    <mxGeometry width="50" height="50" relative="1" as="geometry">
                        <mxPoint x="509" y="200" as="sourcePoint"/>
                        <mxPoint x="559" y="150" as="targetPoint"/>
                    </mxGeometry>
                </mxCell>
                <mxCell id="23" value="contenir" style="text;html=1;align=center;verticalAlign=middle;whiteSpace=wrap;rounded=0;" parent="1" vertex="1">
                    <mxGeometry x="553" y="159" width="60" height="24" as="geometry"/>
                </mxCell>
                <mxCell id="24" value="" style="endArrow=none;html=1;exitX=1;exitY=0.5;exitDx=0;exitDy=0;entryX=0;entryY=0.5;entryDx=0;entryDy=0;" parent="1" source="2" target="17" edge="1">
                    <mxGeometry width="50" height="50" relative="1" as="geometry">
                        <mxPoint x="188" y="208" as="sourcePoint"/>
                        <mxPoint x="238" y="158" as="targetPoint"/>
                    </mxGeometry>
                </mxCell>
                <mxCell id="25" value="" style="endArrow=none;html=1;entryX=1;entryY=0.5;entryDx=0;entryDy=0;exitX=0;exitY=0.5;exitDx=0;exitDy=0;" parent="1" source="5" target="17" edge="1">
                    <mxGeometry width="50" height="50" relative="1" as="geometry">
                        <mxPoint x="330" y="211" as="sourcePoint"/>
                        <mxPoint x="380" y="161" as="targetPoint"/>
                    </mxGeometry>
                </mxCell>
                <mxCell id="27" value="" style="endArrow=none;html=1;entryX=0;entryY=0.5;entryDx=0;entryDy=0;exitX=1;exitY=0.5;exitDx=0;exitDy=0;" parent="1" source="5" target="21" edge="1">
                    <mxGeometry width="50" height="50" relative="1" as="geometry">
                        <mxPoint x="392" y="342" as="sourcePoint"/>
                        <mxPoint x="442" y="292" as="targetPoint"/>
                    </mxGeometry>
                </mxCell>
                <mxCell id="28" value="" style="endArrow=none;html=1;entryX=1;entryY=0.5;entryDx=0;entryDy=0;exitX=0;exitY=0.25;exitDx=0;exitDy=0;" parent="1" source="8" target="21" edge="1">
                    <mxGeometry width="50" height="50" relative="1" as="geometry">
                        <mxPoint x="488" y="325" as="sourcePoint"/>
                        <mxPoint x="538" y="275" as="targetPoint"/>
                    </mxGeometry>
                </mxCell>
                <mxCell id="29" value="1, n" style="text;html=1;align=center;verticalAlign=middle;whiteSpace=wrap;rounded=0;" parent="1" vertex="1">
                    <mxGeometry x="183" y="127" width="60" height="23" as="geometry"/>
                </mxCell>
                <mxCell id="30" value="1, 1" style="text;html=1;align=center;verticalAlign=middle;whiteSpace=wrap;rounded=0;" parent="1" vertex="1">
                    <mxGeometry x="316" y="111" width="60" height="30" as="geometry"/>
                </mxCell>
                <mxCell id="31" value="1, n" style="text;html=1;align=center;verticalAlign=middle;whiteSpace=wrap;rounded=0;" parent="1" vertex="1">
                    <mxGeometry x="497" y="131" width="60" height="30" as="geometry"/>
                </mxCell>
                <mxCell id="32" value="1, n" style="text;html=1;align=center;verticalAlign=middle;whiteSpace=wrap;rounded=0;" parent="1" vertex="1">
                    <mxGeometry x="626" y="175" width="60" height="30" as="geometry"/>
                </mxCell>
                <mxCell id="134" value="" style="rounded=0;whiteSpace=wrap;html=1;" parent="1" vertex="1">
                    <mxGeometry x="331" y="468" width="120" height="120" as="geometry"/>
                </mxCell>
                <mxCell id="135" value="" style="endArrow=none;html=1;exitX=0;exitY=0.323;exitDx=0;exitDy=0;exitPerimeter=0;" parent="1" source="134" edge="1">
                    <mxGeometry width="50" height="50" relative="1" as="geometry">
                        <mxPoint x="381" y="508" as="sourcePoint"/>
                        <mxPoint x="451" y="508" as="targetPoint"/>
                    </mxGeometry>
                </mxCell>
                <mxCell id="136" value="MatiÃ¨re" style="text;html=1;align=center;verticalAlign=middle;whiteSpace=wrap;rounded=0;" parent="1" vertex="1">
                    <mxGeometry x="361" y="473" width="60" height="30" as="geometry"/>
                </mxCell>
                <mxCell id="138" value="" style="rounded=0;whiteSpace=wrap;html=1;" parent="1" vertex="1">
                    <mxGeometry x="521" y="670" width="120" height="120" as="geometry"/>
                </mxCell>
                <mxCell id="139" value="" style="endArrow=none;html=1;exitX=0;exitY=0.323;exitDx=0;exitDy=0;exitPerimeter=0;" parent="1" source="138" edge="1">
                    <mxGeometry width="50" height="50" relative="1" as="geometry">
                        <mxPoint x="571" y="710" as="sourcePoint"/>
                        <mxPoint x="641" y="710" as="targetPoint"/>
                    </mxGeometry>
                </mxCell>
                <mxCell id="140" value="Couleur" style="text;html=1;align=center;verticalAlign=middle;whiteSpace=wrap;rounded=0;" parent="1" vertex="1">
                    <mxGeometry x="551" y="675" width="60" height="30" as="geometry"/>
                </mxCell>
                <mxCell id="141" value="material_id&lt;div&gt;&lt;br&gt;&lt;/div&gt;&lt;div&gt;type&lt;/div&gt;" style="text;html=1;align=center;verticalAlign=middle;whiteSpace=wrap;rounded=0;" parent="1" vertex="1">
                    <mxGeometry x="361" y="516" width="60" height="65" as="geometry"/>
                </mxCell>
                <mxCell id="142" value="color_id&lt;div&gt;&lt;br&gt;&lt;/div&gt;&lt;div&gt;name&lt;/div&gt;" style="text;html=1;align=center;verticalAlign=middle;whiteSpace=wrap;rounded=0;" parent="1" vertex="1">
                    <mxGeometry x="551" y="716" width="60" height="67" as="geometry"/>
                </mxCell>
                <mxCell id="143" value="" style="endArrow=none;html=1;entryX=0;entryY=0.75;entryDx=0;entryDy=0;exitX=1.114;exitY=0.787;exitDx=0;exitDy=0;exitPerimeter=0;" parent="1" source="148" target="8" edge="1">
                    <mxGeometry width="50" height="50" relative="1" as="geometry">
                        <mxPoint x="610" y="360" as="sourcePoint"/>
                        <mxPoint x="570" y="390" as="targetPoint"/>
                    </mxGeometry>
                </mxCell>
                <mxCell id="144" value="" style="endArrow=none;html=1;entryX=0.5;entryY=1;entryDx=0;entryDy=0;exitX=0.5;exitY=0;exitDx=0;exitDy=0;" parent="1" source="150" target="8" edge="1">
                    <mxGeometry width="50" height="50" relative="1" as="geometry">
                        <mxPoint x="800" y="480" as="sourcePoint"/>
                        <mxPoint x="642" y="390" as="targetPoint"/>
                    </mxGeometry>
                </mxCell>
                <mxCell id="145" value="" style="endArrow=none;html=1;entryX=0.5;entryY=0;entryDx=0;entryDy=0;exitX=1;exitY=0.5;exitDx=0;exitDy=0;" parent="1" source="154" target="138" edge="1">
                    <mxGeometry width="50" height="50" relative="1" as="geometry">
                        <mxPoint x="450" y="720" as="sourcePoint"/>
                        <mxPoint x="570" y="560" as="targetPoint"/>
                    </mxGeometry>
                </mxCell>
                <mxCell id="146" value="" style="rounded=1;whiteSpace=wrap;html=1;arcSize=50;" parent="1" vertex="1">
                    <mxGeometry x="534" y="470" width="90" height="40" as="geometry"/>
                </mxCell>
                <mxCell id="147" value="" style="endArrow=none;html=1;entryX=1;entryY=0.5;entryDx=0;entryDy=0;exitX=0;exitY=0.5;exitDx=0;exitDy=0;" parent="1" source="146" target="146" edge="1">
                    <mxGeometry width="50" height="50" relative="1" as="geometry">
                        <mxPoint x="534" y="510" as="sourcePoint"/>
                        <mxPoint x="584" y="460" as="targetPoint"/>
                    </mxGeometry>
                </mxCell>
                <mxCell id="148" value="est faite de" style="text;html=1;align=center;verticalAlign=middle;whiteSpace=wrap;rounded=0;" parent="1" vertex="1">
                    <mxGeometry x="546" y="464" width="70" height="30" as="geometry"/>
                </mxCell>
                <mxCell id="149" value="" style="endArrow=none;html=1;entryX=0;entryY=0.5;entryDx=0;entryDy=0;exitX=1.005;exitY=0.18;exitDx=0;exitDy=0;exitPerimeter=0;" parent="1" source="134" target="146" edge="1">
                    <mxGeometry width="50" height="50" relative="1" as="geometry">
                        <mxPoint x="530" y="520" as="sourcePoint"/>
                        <mxPoint x="580" y="470" as="targetPoint"/>
                    </mxGeometry>
                </mxCell>
                <mxCell id="150" value="" style="rounded=1;whiteSpace=wrap;html=1;arcSize=50;" parent="1" vertex="1">
                    <mxGeometry x="695" y="520" width="80" height="40" as="geometry"/>
                </mxCell>
                <mxCell id="151" value="" style="endArrow=none;html=1;entryX=1;entryY=0.5;entryDx=0;entryDy=0;exitX=0;exitY=0.5;exitDx=0;exitDy=0;" parent="1" source="150" target="150" edge="1">
                    <mxGeometry width="50" height="50" relative="1" as="geometry">
                        <mxPoint x="578" y="580" as="sourcePoint"/>
                        <mxPoint x="628" y="530" as="targetPoint"/>
                    </mxGeometry>
                </mxCell>
                <mxCell id="152" value="Ãªtre de" style="text;html=1;align=center;verticalAlign=middle;whiteSpace=wrap;rounded=0;" parent="1" vertex="1">
                    <mxGeometry x="707" y="515" width="60" height="30" as="geometry"/>
                </mxCell>
                <mxCell id="153" value="" style="endArrow=none;html=1;exitX=1;exitY=0.5;exitDx=0;exitDy=0;entryX=0.5;entryY=1;entryDx=0;entryDy=0;" parent="1" source="138" target="150" edge="1">
                    <mxGeometry width="50" height="50" relative="1" as="geometry">
                        <mxPoint x="580" y="580" as="sourcePoint"/>
                        <mxPoint x="700" y="540" as="targetPoint"/>
                    </mxGeometry>
                </mxCell>
                <mxCell id="154" value="" style="rounded=1;whiteSpace=wrap;html=1;arcSize=50;" parent="1" vertex="1">
                    <mxGeometry x="437" y="613" width="110" height="40" as="geometry"/>
                </mxCell>
                <mxCell id="155" value="" style="endArrow=none;html=1;entryX=1;entryY=0.5;entryDx=0;entryDy=0;exitX=0;exitY=0.5;exitDx=0;exitDy=0;" parent="1" source="154" target="154" edge="1">
                    <mxGeometry width="50" height="50" relative="1" as="geometry">
                        <mxPoint x="577" y="563" as="sourcePoint"/>
                        <mxPoint x="627" y="513" as="targetPoint"/>
                    </mxGeometry>
                </mxCell>
                <mxCell id="157" value="Ãªtre disponible en" style="text;html=1;align=center;verticalAlign=middle;resizable=0;points=[];autosize=1;strokeColor=none;fillColor=none;" parent="1" vertex="1">
                    <mxGeometry x="433" y="609" width="120" height="30" as="geometry"/>
                </mxCell>
                <mxCell id="160" value="" style="endArrow=none;html=1;entryX=0.5;entryY=1;entryDx=0;entryDy=0;exitX=0;exitY=0.5;exitDx=0;exitDy=0;" parent="1" source="154" target="134" edge="1">
                    <mxGeometry width="50" height="50" relative="1" as="geometry">
                        <mxPoint x="550" y="760" as="sourcePoint"/>
                        <mxPoint x="600" y="710" as="targetPoint"/>
                    </mxGeometry>
                </mxCell>
                <mxCell id="161" value="1, 1" style="text;html=1;align=center;verticalAlign=middle;whiteSpace=wrap;rounded=0;" parent="1" vertex="1">
                    <mxGeometry x="742" y="448" width="60" height="30" as="geometry"/>
                </mxCell>
                <mxCell id="162" value="1, n" style="text;html=1;align=center;verticalAlign=middle;whiteSpace=wrap;rounded=0;" parent="1" vertex="1">
                    <mxGeometry x="650.72" y="600" width="60" height="30" as="geometry"/>
                </mxCell>
                <mxCell id="163" value="1, n" style="text;html=1;align=center;verticalAlign=middle;whiteSpace=wrap;rounded=0;" parent="1" vertex="1">
                    <mxGeometry x="373" y="600" width="60" height="30" as="geometry"/>
                </mxCell>
                <mxCell id="164" value="1, n" style="text;html=1;align=center;verticalAlign=middle;whiteSpace=wrap;rounded=0;" parent="1" vertex="1">
                    <mxGeometry x="549" y="630" width="60" height="30" as="geometry"/>
                </mxCell>
                <mxCell id="165" value="1, 1" style="text;html=1;align=center;verticalAlign=middle;whiteSpace=wrap;rounded=0;" parent="1" vertex="1">
                    <mxGeometry x="608" y="393" width="60" height="30" as="geometry"/>
                </mxCell>
                <mxCell id="167" value="1, n" style="text;html=1;align=center;verticalAlign=middle;whiteSpace=wrap;rounded=0;" parent="1" vertex="1">
                    <mxGeometry x="461" y="458" width="60" height="30" as="geometry"/>
                </mxCell>
                <mxCell id="189" value="" style="rounded=0;whiteSpace=wrap;html=1;" parent="1" vertex="1">
                    <mxGeometry x="41.72" y="400" width="120" height="240" as="geometry"/>
                </mxCell>
                <mxCell id="190" value="" style="endArrow=none;html=1;entryX=1.001;entryY=0.175;entryDx=0;entryDy=0;entryPerimeter=0;exitX=-0.006;exitY=0.173;exitDx=0;exitDy=0;exitPerimeter=0;" parent="1" edge="1">
                    <mxGeometry width="50" height="50" relative="1" as="geometry">
                        <mxPoint x="41.000000000000114" y="439.98" as="sourcePoint"/>
                        <mxPoint x="161.83999999999992" y="440.5" as="targetPoint"/>
                    </mxGeometry>
                </mxCell>
                <mxCell id="191" value="Tarification" style="text;html=1;align=center;verticalAlign=middle;whiteSpace=wrap;rounded=0;" parent="1" vertex="1">
                    <mxGeometry x="71.72000000000003" y="406" width="60" height="30" as="geometry"/>
                </mxCell>
                <mxCell id="192" value="pricing_id&lt;div&gt;&lt;br&gt;&lt;/div&gt;&lt;div&gt;material_id&lt;/div&gt;&lt;div&gt;&lt;br&gt;&lt;/div&gt;&lt;div&gt;color_id&lt;/div&gt;&lt;div&gt;&lt;br&gt;&lt;/div&gt;&lt;div&gt;quantity&lt;/div&gt;&lt;div&gt;&lt;br&gt;&lt;/div&gt;&lt;div&gt;base_price&lt;/div&gt;&lt;div&gt;&lt;br&gt;&lt;/div&gt;&lt;div&gt;final_price&lt;/div&gt;" style="text;html=1;align=center;verticalAlign=middle;whiteSpace=wrap;rounded=0;" parent="1" vertex="1">
                    <mxGeometry x="51.72000000000003" y="441" width="100" height="210" as="geometry"/>
                </mxCell>
                <mxCell id="196" value="" style="rounded=1;whiteSpace=wrap;html=1;arcSize=50;" parent="1" vertex="1">
                    <mxGeometry x="215" y="510" width="60" height="40" as="geometry"/>
                </mxCell>
                <mxCell id="197" value="" style="endArrow=none;html=1;entryX=1;entryY=0.5;entryDx=0;entryDy=0;exitX=0;exitY=0.5;exitDx=0;exitDy=0;" parent="1" source="196" target="196" edge="1">
                    <mxGeometry width="50" height="50" relative="1" as="geometry">
                        <mxPoint x="485" y="620" as="sourcePoint"/>
                        <mxPoint x="535" y="570" as="targetPoint"/>
                    </mxGeometry>
                </mxCell>
                <mxCell id="198" value="avoir" style="text;html=1;align=center;verticalAlign=middle;whiteSpace=wrap;rounded=0;" parent="1" vertex="1">
                    <mxGeometry x="215" y="506" width="60" height="30" as="geometry"/>
                </mxCell>
                <mxCell id="199" value="" style="endArrow=none;html=1;entryX=0;entryY=0.5;entryDx=0;entryDy=0;exitX=1.001;exitY=0.798;exitDx=0;exitDy=0;exitPerimeter=0;" parent="1" source="198" target="134" edge="1">
                    <mxGeometry width="50" height="50" relative="1" as="geometry">
                        <mxPoint x="230" y="510" as="sourcePoint"/>
                        <mxPoint x="480" y="550" as="targetPoint"/>
                    </mxGeometry>
                </mxCell>
                <mxCell id="200" value="" style="endArrow=none;html=1;entryX=1;entryY=0.5;entryDx=0;entryDy=0;exitX=0;exitY=0.75;exitDx=0;exitDy=0;" parent="1" source="198" target="189" edge="1">
                    <mxGeometry width="50" height="50" relative="1" as="geometry">
                        <mxPoint x="196" y="530" as="sourcePoint"/>
                        <mxPoint x="150" y="400" as="targetPoint"/>
                    </mxGeometry>
                </mxCell>
                <mxCell id="201" value="" style="rounded=1;whiteSpace=wrap;html=1;arcSize=50;" parent="1" vertex="1">
                    <mxGeometry x="270" y="741" width="100" height="40" as="geometry"/>
                </mxCell>
                <mxCell id="202" value="" style="endArrow=none;html=1;entryX=1;entryY=0.5;entryDx=0;entryDy=0;exitX=0;exitY=0.5;exitDx=0;exitDy=0;" parent="1" source="201" target="201" edge="1">
                    <mxGeometry width="50" height="50" relative="1" as="geometry">
                        <mxPoint x="332" y="801" as="sourcePoint"/>
                        <mxPoint x="382" y="751" as="targetPoint"/>
                    </mxGeometry>
                </mxCell>
                <mxCell id="203" value="Ãªtre associÃ© Ã " style="text;html=1;align=center;verticalAlign=middle;whiteSpace=wrap;rounded=0;" parent="1" vertex="1">
                    <mxGeometry x="280" y="740" width="80" height="20" as="geometry"/>
                </mxCell>
                <mxCell id="204" value="" style="endArrow=none;html=1;entryX=0;entryY=0.75;entryDx=0;entryDy=0;exitX=1;exitY=0.5;exitDx=0;exitDy=0;" parent="1" source="201" target="138" edge="1">
                    <mxGeometry width="50" height="50" relative="1" as="geometry">
                        <mxPoint x="370" y="780" as="sourcePoint"/>
                        <mxPoint x="460" y="690" as="targetPoint"/>
                    </mxGeometry>
                </mxCell>
                <mxCell id="205" value="" style="endArrow=none;html=1;entryX=0;entryY=0.5;entryDx=0;entryDy=0;exitX=0.5;exitY=1;exitDx=0;exitDy=0;" parent="1" source="189" target="201" edge="1">
                    <mxGeometry width="50" height="50" relative="1" as="geometry">
                        <mxPoint x="410" y="630" as="sourcePoint"/>
                        <mxPoint x="460" y="580" as="targetPoint"/>
                    </mxGeometry>
                </mxCell>
                <mxCell id="206" value="1, n" style="text;html=1;align=center;verticalAlign=middle;whiteSpace=wrap;rounded=0;" parent="1" vertex="1">
                    <mxGeometry x="268" y="503" width="60" height="30" as="geometry"/>
                </mxCell>
                <mxCell id="207" value="1, 1" style="text;html=1;align=center;verticalAlign=middle;whiteSpace=wrap;rounded=0;" parent="1" vertex="1">
                    <mxGeometry x="161" y="494" width="60" height="30" as="geometry"/>
                </mxCell>
                <mxCell id="208" value="1, n" style="text;html=1;align=center;verticalAlign=middle;whiteSpace=wrap;rounded=0;" parent="1" vertex="1">
                    <mxGeometry x="393" y="735" width="60" height="30" as="geometry"/>
                </mxCell>
                <mxCell id="209" value="1, 1" style="text;html=1;align=center;verticalAlign=middle;whiteSpace=wrap;rounded=0;" parent="1" vertex="1">
                    <mxGeometry x="201" y="705" width="60" height="30" as="geometry"/>
                </mxCell>
                <mxCell id="212" value="" style="rounded=1;whiteSpace=wrap;html=1;arcSize=50;" parent="1" vertex="1">
                    <mxGeometry x="360" y="350" width="101" height="40" as="geometry"/>
                </mxCell>
                <mxCell id="213" value="" style="endArrow=none;html=1;entryX=1;entryY=0.5;entryDx=0;entryDy=0;exitX=0;exitY=0.5;exitDx=0;exitDy=0;" parent="1" source="212" target="212" edge="1">
                    <mxGeometry width="50" height="50" relative="1" as="geometry">
                        <mxPoint x="340" y="460" as="sourcePoint"/>
                        <mxPoint x="390" y="410" as="targetPoint"/>
                    </mxGeometry>
                </mxCell>
                <mxCell id="214" value="determiner" style="text;html=1;align=center;verticalAlign=middle;whiteSpace=wrap;rounded=0;" parent="1" vertex="1">
                    <mxGeometry x="380" y="345" width="60" height="30" as="geometry"/>
                </mxCell>
                <mxCell id="215" value="" style="endArrow=none;html=1;entryX=0;entryY=0.5;entryDx=0;entryDy=0;exitX=1.004;exitY=0.18;exitDx=0;exitDy=0;exitPerimeter=0;" parent="1" source="189" target="212" edge="1">
                    <mxGeometry width="50" height="50" relative="1" as="geometry">
                        <mxPoint x="340" y="460" as="sourcePoint"/>
                        <mxPoint x="390" y="410" as="targetPoint"/>
                    </mxGeometry>
                </mxCell>
                <mxCell id="216" value="" style="endArrow=none;html=1;exitX=0;exitY=0.5;exitDx=0;exitDy=0;entryX=1;entryY=0.5;entryDx=0;entryDy=0;" parent="1" source="8" target="212" edge="1">
                    <mxGeometry width="50" height="50" relative="1" as="geometry">
                        <mxPoint x="310" y="490" as="sourcePoint"/>
                        <mxPoint x="470" y="370" as="targetPoint"/>
                    </mxGeometry>
                </mxCell>
                <mxCell id="217" value="1, 1" style="text;html=1;align=center;verticalAlign=middle;whiteSpace=wrap;rounded=0;" parent="1" vertex="1">
                    <mxGeometry x="525" y="300" width="60" height="30" as="geometry"/>
                </mxCell>
                <mxCell id="218" value="1, n" style="text;html=1;align=center;verticalAlign=middle;whiteSpace=wrap;rounded=0;" parent="1" vertex="1">
                    <mxGeometry x="217" y="376" width="60" height="30" as="geometry"/>
                </mxCell>
                <mxCell id="219" value="" style="endArrow=none;html=1;" parent="1" edge="1">
                    <mxGeometry width="50" height="50" relative="1" as="geometry">
                        <mxPoint x="75" y="483" as="sourcePoint"/>
                        <mxPoint x="135" y="483" as="targetPoint"/>
                    </mxGeometry>
                </mxCell>
                <mxCell id="220" value="" style="endArrow=none;html=1;entryX=-0.016;entryY=0.406;entryDx=0;entryDy=0;entryPerimeter=0;" parent="1" edge="1">
                    <mxGeometry width="50" height="50" relative="1" as="geometry">
                        <mxPoint x="429" y="542" as="sourcePoint"/>
                        <mxPoint x="358.03999999999996" y="541.3900000000001" as="targetPoint"/>
                    </mxGeometry>
                </mxCell>
                <mxCell id="221" value="" style="endArrow=none;html=1;" parent="1" edge="1">
                    <mxGeometry width="50" height="50" relative="1" as="geometry">
                        <mxPoint x="616" y="742" as="sourcePoint"/>
                        <mxPoint x="553" y="742" as="targetPoint"/>
                    </mxGeometry>
                </mxCell>
                <mxCell id="222" value="" style="rounded=0;whiteSpace=wrap;html=1;" parent="1" vertex="1">
                    <mxGeometry x="65.72" y="1170" width="120" height="179" as="geometry"/>
                </mxCell>
                <mxCell id="223" value="" style="endArrow=none;html=1;entryX=1;entryY=0.22;entryDx=0;entryDy=0;entryPerimeter=0;" parent="1" target="222" edge="1">
                    <mxGeometry width="50" height="50" relative="1" as="geometry">
                        <mxPoint x="65.72" y="1210" as="sourcePoint"/>
                        <mxPoint x="179.72" y="1209" as="targetPoint"/>
                    </mxGeometry>
                </mxCell>
                <mxCell id="224" value="clients" style="text;html=1;align=center;verticalAlign=middle;whiteSpace=wrap;rounded=0;" parent="1" vertex="1">
                    <mxGeometry x="95.72" y="1176" width="60" height="30" as="geometry"/>
                </mxCell>
                <mxCell id="225" value="" style="rounded=0;whiteSpace=wrap;html=1;" parent="1" vertex="1">
                    <mxGeometry x="268.72" y="1150" width="120" height="179" as="geometry"/>
                </mxCell>
                <mxCell id="226" value="" style="endArrow=none;html=1;entryX=1.005;entryY=0.221;entryDx=0;entryDy=0;entryPerimeter=0;" parent="1" target="225" edge="1">
                    <mxGeometry width="50" height="50" relative="1" as="geometry">
                        <mxPoint x="268.72" y="1190" as="sourcePoint"/>
                        <mxPoint x="318.72" y="1140" as="targetPoint"/>
                    </mxGeometry>
                </mxCell>
                <mxCell id="227" value="orders" style="text;html=1;align=center;verticalAlign=middle;whiteSpace=wrap;rounded=0;" parent="1" vertex="1">
                    <mxGeometry x="298.72" y="1156" width="60" height="30" as="geometry"/>
                </mxCell>
                <mxCell id="228" value="" style="rounded=0;whiteSpace=wrap;html=1;" parent="1" vertex="1">
                    <mxGeometry x="676.72" y="1246" width="120" height="263" as="geometry"/>
                </mxCell>
                <mxCell id="229" value="" style="endArrow=none;html=1;entryX=0.998;entryY=0.144;entryDx=0;entryDy=0;entryPerimeter=0;exitX=-0.001;exitY=0.144;exitDx=0;exitDy=0;exitPerimeter=0;" parent="1" source="228" target="228" edge="1">
                    <mxGeometry width="50" height="50" relative="1" as="geometry">
                        <mxPoint x="672.72" y="1286" as="sourcePoint"/>
                        <mxPoint x="792.8399999999999" y="1287.44" as="targetPoint"/>
                    </mxGeometry>
                </mxCell>
                <mxCell id="230" value="boxes" style="text;html=1;align=center;verticalAlign=middle;whiteSpace=wrap;rounded=0;" parent="1" vertex="1">
                    <mxGeometry x="706.72" y="1252" width="60" height="30" as="geometry"/>
                </mxCell>
                <mxCell id="231" value="client_id&lt;div&gt;&lt;br&gt;&lt;/div&gt;&lt;div&gt;name&lt;/div&gt;&lt;div&gt;&lt;br&gt;&lt;/div&gt;&lt;div&gt;address&lt;/div&gt;&lt;div&gt;&lt;br&gt;&lt;/div&gt;&lt;div&gt;phone&lt;/div&gt;&lt;div&gt;&lt;br&gt;&lt;/div&gt;&lt;div&gt;email&lt;/div&gt;" style="text;html=1;align=center;verticalAlign=middle;whiteSpace=wrap;rounded=0;" parent="1" vertex="1">
                    <mxGeometry x="75.72" y="1229" width="100" height="100" as="geometry"/>
                </mxCell>
                <mxCell id="232" value="order_id&lt;div&gt;&lt;font color=&quot;#000000&quot;&gt;&lt;br&gt;&lt;/font&gt;&lt;div&gt;order_date&lt;/div&gt;&lt;div&gt;&lt;br&gt;&lt;/div&gt;&lt;div&gt;#client_id&lt;/div&gt;&lt;/div&gt;&lt;div&gt;&lt;br&gt;&lt;/div&gt;&lt;div&gt;total_amount&lt;/div&gt;" style="text;html=1;align=center;verticalAlign=middle;whiteSpace=wrap;rounded=0;" parent="1" vertex="1">
                    <mxGeometry x="298.72" y="1211" width="60" height="100" as="geometry"/>
                </mxCell>
                <mxCell id="233" value="" style="endArrow=none;html=1;" parent="1" edge="1">
                    <mxGeometry width="50" height="50" relative="1" as="geometry">
                        <mxPoint x="94.72" y="1228" as="sourcePoint"/>
                        <mxPoint x="164.72" y="1228" as="targetPoint"/>
                    </mxGeometry>
                </mxCell>
                <mxCell id="234" value="" style="endArrow=none;html=1;" parent="1" edge="1">
                    <mxGeometry width="50" height="50" relative="1" as="geometry">
                        <mxPoint x="294.72" y="1228.62" as="sourcePoint"/>
                        <mxPoint x="364.72" y="1228.62" as="targetPoint"/>
                    </mxGeometry>
                </mxCell>
                <mxCell id="235" value="" style="endArrow=none;html=1;" parent="1" edge="1">
                    <mxGeometry width="50" height="50" relative="1" as="geometry">
                        <mxPoint x="701.72" y="1323" as="sourcePoint"/>
                        <mxPoint x="771.72" y="1323" as="targetPoint"/>
                    </mxGeometry>
                </mxCell>
                <mxCell id="236" value="box_id&lt;div&gt;&lt;br&gt;&lt;/div&gt;&lt;div&gt;#material_id&lt;/div&gt;&lt;div&gt;&lt;br&gt;&lt;/div&gt;&lt;div&gt;#color_id&lt;/div&gt;&lt;div&gt;&lt;br&gt;&lt;/div&gt;&lt;div&gt;width&lt;/div&gt;&lt;div&gt;&lt;br&gt;&lt;/div&gt;&lt;div&gt;height&lt;/div&gt;&lt;div&gt;&lt;br&gt;&lt;/div&gt;&lt;div&gt;length&lt;/div&gt;&lt;div&gt;&lt;br&gt;&lt;/div&gt;&lt;div&gt;surface&lt;/div&gt;" style="text;html=1;align=center;verticalAlign=middle;whiteSpace=wrap;rounded=0;" parent="1" vertex="1">
                    <mxGeometry x="706.72" y="1295" width="60" height="210" as="geometry"/>
                </mxCell>
                <mxCell id="243" value="" style="endArrow=none;html=1;exitX=1;exitY=0.5;exitDx=0;exitDy=0;entryX=0;entryY=0.5;entryDx=0;entryDy=0;" parent="1" source="222" target="225" edge="1">
                    <mxGeometry width="50" height="50" relative="1" as="geometry">
                        <mxPoint x="187.72" y="1297" as="sourcePoint"/>
                        <mxPoint x="249.72000000000003" y="1250" as="targetPoint"/>
                    </mxGeometry>
                </mxCell>
                <mxCell id="245" value="" style="endArrow=none;html=1;exitX=1;exitY=0.5;exitDx=0;exitDy=0;entryX=0;entryY=0.5;entryDx=0;entryDy=0;" parent="1" source="225" target="310" edge="1">
                    <mxGeometry width="50" height="50" relative="1" as="geometry">
                        <mxPoint x="391.72" y="1431" as="sourcePoint"/>
                        <mxPoint x="440" y="1180" as="targetPoint"/>
                    </mxGeometry>
                </mxCell>
                <mxCell id="246" value="" style="endArrow=none;html=1;entryX=1;entryY=0.5;entryDx=0;entryDy=0;exitX=0;exitY=0.25;exitDx=0;exitDy=0;" parent="1" source="228" target="310" edge="1">
                    <mxGeometry width="50" height="50" relative="1" as="geometry">
                        <mxPoint x="487.72" y="1414" as="sourcePoint"/>
                        <mxPoint x="619.72" y="1270" as="targetPoint"/>
                    </mxGeometry>
                </mxCell>
                <mxCell id="251" value="" style="rounded=0;whiteSpace=wrap;html=1;" parent="1" vertex="1">
                    <mxGeometry x="477.72" y="1480" width="120" height="120" as="geometry"/>
                </mxCell>
                <mxCell id="252" value="" style="endArrow=none;html=1;exitX=0;exitY=0.323;exitDx=0;exitDy=0;exitPerimeter=0;" parent="1" source="251" edge="1">
                    <mxGeometry width="50" height="50" relative="1" as="geometry">
                        <mxPoint x="527.72" y="1520" as="sourcePoint"/>
                        <mxPoint x="597.72" y="1520" as="targetPoint"/>
                    </mxGeometry>
                </mxCell>
                <mxCell id="253" value="materials" style="text;html=1;align=center;verticalAlign=middle;whiteSpace=wrap;rounded=0;" parent="1" vertex="1">
                    <mxGeometry x="507.72" y="1485" width="60" height="30" as="geometry"/>
                </mxCell>
                <mxCell id="254" value="" style="rounded=0;whiteSpace=wrap;html=1;" parent="1" vertex="1">
                    <mxGeometry x="520.72" y="1759" width="120" height="120" as="geometry"/>
                </mxCell>
                <mxCell id="255" value="" style="endArrow=none;html=1;exitX=0;exitY=0.323;exitDx=0;exitDy=0;exitPerimeter=0;" parent="1" source="254" edge="1">
                    <mxGeometry width="50" height="50" relative="1" as="geometry">
                        <mxPoint x="570.72" y="1799" as="sourcePoint"/>
                        <mxPoint x="640.72" y="1799" as="targetPoint"/>
                    </mxGeometry>
                </mxCell>
                <mxCell id="256" value="colors" style="text;html=1;align=center;verticalAlign=middle;whiteSpace=wrap;rounded=0;" parent="1" vertex="1">
                    <mxGeometry x="550.72" y="1764" width="60" height="30" as="geometry"/>
                </mxCell>
                <mxCell id="257" value="material_id&lt;div&gt;&lt;br&gt;&lt;/div&gt;&lt;div&gt;type&lt;/div&gt;" style="text;html=1;align=center;verticalAlign=middle;whiteSpace=wrap;rounded=0;" parent="1" vertex="1">
                    <mxGeometry x="507.72" y="1528" width="60" height="65" as="geometry"/>
                </mxCell>
                <mxCell id="258" value="color_id&lt;div&gt;&lt;br&gt;&lt;/div&gt;&lt;div&gt;name&lt;/div&gt;" style="text;html=1;align=center;verticalAlign=middle;whiteSpace=wrap;rounded=0;" parent="1" vertex="1">
                    <mxGeometry x="550.72" y="1805" width="60" height="67" as="geometry"/>
                </mxCell>
                <mxCell id="259" value="" style="endArrow=none;html=1;entryX=0;entryY=0.75;entryDx=0;entryDy=0;exitX=1.002;exitY=0.192;exitDx=0;exitDy=0;exitPerimeter=0;" parent="1" source="251" target="228" edge="1">
                    <mxGeometry width="50" height="50" relative="1" as="geometry">
                        <mxPoint x="623.7" y="1576.6100000000001" as="sourcePoint"/>
                        <mxPoint x="569.72" y="1479" as="targetPoint"/>
                    </mxGeometry>
                </mxCell>
                <mxCell id="269" value="" style="endArrow=none;html=1;exitX=1;exitY=0.5;exitDx=0;exitDy=0;entryX=0.5;entryY=1;entryDx=0;entryDy=0;" parent="1" source="254" target="228" edge="1">
                    <mxGeometry width="50" height="50" relative="1" as="geometry">
                        <mxPoint x="579.72" y="1669" as="sourcePoint"/>
                        <mxPoint x="730" y="1520" as="targetPoint"/>
                    </mxGeometry>
                </mxCell>
                <mxCell id="280" value="" style="rounded=0;whiteSpace=wrap;html=1;" parent="1" vertex="1">
                    <mxGeometry x="41.44" y="1489" width="120" height="240" as="geometry"/>
                </mxCell>
                <mxCell id="281" value="" style="endArrow=none;html=1;entryX=1.001;entryY=0.175;entryDx=0;entryDy=0;entryPerimeter=0;exitX=-0.006;exitY=0.173;exitDx=0;exitDy=0;exitPerimeter=0;" parent="1" edge="1">
                    <mxGeometry width="50" height="50" relative="1" as="geometry">
                        <mxPoint x="40.72000000000011" y="1528.98" as="sourcePoint"/>
                        <mxPoint x="161.55999999999992" y="1529.5" as="targetPoint"/>
                    </mxGeometry>
                </mxCell>
                <mxCell id="282" value="pricing" style="text;html=1;align=center;verticalAlign=middle;whiteSpace=wrap;rounded=0;" parent="1" vertex="1">
                    <mxGeometry x="71.44000000000003" y="1495" width="60" height="30" as="geometry"/>
                </mxCell>
                <mxCell id="283" value="pricing_id&lt;div&gt;&lt;br&gt;&lt;/div&gt;&lt;div&gt;#material_id&lt;/div&gt;&lt;div&gt;&lt;br&gt;&lt;/div&gt;&lt;div&gt;#color_id&lt;/div&gt;&lt;div&gt;&lt;br&gt;&lt;/div&gt;&lt;div&gt;quantity&lt;/div&gt;&lt;div&gt;&lt;br&gt;&lt;/div&gt;&lt;div&gt;base_price&lt;/div&gt;&lt;div&gt;&lt;br&gt;&lt;/div&gt;&lt;div&gt;final_price&lt;/div&gt;" style="text;html=1;align=center;verticalAlign=middle;whiteSpace=wrap;rounded=0;" parent="1" vertex="1">
                    <mxGeometry x="51.44" y="1541" width="100" height="185" as="geometry"/>
                </mxCell>
                <mxCell id="288" value="" style="endArrow=none;html=1;entryX=1;entryY=0.5;entryDx=0;entryDy=0;exitX=0;exitY=0.5;exitDx=0;exitDy=0;" parent="1" source="251" target="280" edge="1">
                    <mxGeometry width="50" height="50" relative="1" as="geometry">
                        <mxPoint x="214.72000000000003" y="1617.5" as="sourcePoint"/>
                        <mxPoint x="149.72" y="1489" as="targetPoint"/>
                    </mxGeometry>
                </mxCell>
                <mxCell id="292" value="" style="endArrow=none;html=1;entryX=0;entryY=0.75;entryDx=0;entryDy=0;exitX=0.5;exitY=1;exitDx=0;exitDy=0;" parent="1" source="280" target="254" edge="1">
                    <mxGeometry width="50" height="50" relative="1" as="geometry">
                        <mxPoint x="110" y="1819" as="sourcePoint"/>
                        <mxPoint x="459.72" y="1779" as="targetPoint"/>
                    </mxGeometry>
                </mxCell>
                <mxCell id="302" value="" style="endArrow=none;html=1;exitX=0;exitY=0.5;exitDx=0;exitDy=0;entryX=1;entryY=0.25;entryDx=0;entryDy=0;" parent="1" source="228" target="280" edge="1">
                    <mxGeometry width="50" height="50" relative="1" as="geometry">
                        <mxPoint x="309.72" y="1579" as="sourcePoint"/>
                        <mxPoint x="460.72" y="1459" as="targetPoint"/>
                    </mxGeometry>
                </mxCell>
                <mxCell id="305" value="" style="endArrow=none;html=1;" parent="1" edge="1">
                    <mxGeometry width="50" height="50" relative="1" as="geometry">
                        <mxPoint x="74.72" y="1572" as="sourcePoint"/>
                        <mxPoint x="134.72" y="1572" as="targetPoint"/>
                    </mxGeometry>
                </mxCell>
                <mxCell id="306" value="" style="endArrow=none;html=1;entryX=-0.016;entryY=0.406;entryDx=0;entryDy=0;entryPerimeter=0;" parent="1" edge="1">
                    <mxGeometry width="50" height="50" relative="1" as="geometry">
                        <mxPoint x="575.72" y="1554" as="sourcePoint"/>
                        <mxPoint x="504.76" y="1553.39" as="targetPoint"/>
                    </mxGeometry>
                </mxCell>
                <mxCell id="307" value="" style="endArrow=none;html=1;" parent="1" edge="1">
                    <mxGeometry width="50" height="50" relative="1" as="geometry">
                        <mxPoint x="615.72" y="1831" as="sourcePoint"/>
                        <mxPoint x="552.72" y="1831" as="targetPoint"/>
                    </mxGeometry>
                </mxCell>
                <mxCell id="308" value="MCD" style="text;html=1;align=center;verticalAlign=middle;whiteSpace=wrap;rounded=0;" vertex="1" parent="1">
                    <mxGeometry x="11.720000000000027" width="60" height="30" as="geometry"/>
                </mxCell>
                <mxCell id="310" value="" style="rounded=0;whiteSpace=wrap;html=1;" vertex="1" parent="1">
                    <mxGeometry x="480" y="1150" width="120" height="190" as="geometry"/>
                </mxCell>
                <mxCell id="311" value="" style="endArrow=none;html=1;entryX=1.005;entryY=0.211;entryDx=0;entryDy=0;entryPerimeter=0;exitX=0.002;exitY=0.218;exitDx=0;exitDy=0;exitPerimeter=0;" edge="1" parent="1">
                    <mxGeometry width="50" height="50" relative="1" as="geometry">
                        <mxPoint x="480.24" y="1187.4199999999998" as="sourcePoint"/>
                        <mxPoint x="600.5999999999999" y="1186.09" as="targetPoint"/>
                    </mxGeometry>
                </mxCell>
                <mxCell id="312" value="order_boxes" style="text;html=1;align=center;verticalAlign=middle;whiteSpace=wrap;rounded=0;" vertex="1" parent="1">
                    <mxGeometry x="509" y="1154" width="60" height="30" as="geometry"/>
                </mxCell>
                <mxCell id="313" value="order_box_id&lt;div&gt;&lt;br&gt;&lt;/div&gt;&lt;div&gt;#order_id&lt;/div&gt;&lt;div&gt;&lt;br&gt;&lt;/div&gt;&lt;div&gt;#box_id&lt;/div&gt;&lt;div&gt;&lt;br&gt;&lt;/div&gt;&lt;div&gt;quantity&lt;/div&gt;&lt;div&gt;&lt;br&gt;&lt;/div&gt;&lt;div&gt;total_price&lt;/div&gt;&lt;div&gt;&lt;br&gt;&lt;/div&gt;" style="text;html=1;align=center;verticalAlign=middle;whiteSpace=wrap;rounded=0;" vertex="1" parent="1">
                    <mxGeometry x="510" y="1215" width="60" height="109" as="geometry"/>
                </mxCell>
                <mxCell id="315" value="" style="rounded=0;whiteSpace=wrap;html=1;" vertex="1" parent="1">
                    <mxGeometry x="335" y="1620" width="120" height="140" as="geometry"/>
                </mxCell>
                <mxCell id="316" value="" style="endArrow=none;html=1;entryX=1;entryY=0.25;entryDx=0;entryDy=0;exitX=0;exitY=0.25;exitDx=0;exitDy=0;" edge="1" parent="1">
                    <mxGeometry width="50" height="50" relative="1" as="geometry">
                        <mxPoint x="335" y="1656.5" as="sourcePoint"/>
                        <mxPoint x="455" y="1656.5" as="targetPoint"/>
                    </mxGeometry>
                </mxCell>
                <mxCell id="318" value="material_colors" style="text;html=1;align=center;verticalAlign=middle;whiteSpace=wrap;rounded=0;" vertex="1" parent="1">
                    <mxGeometry x="367" y="1624" width="60" height="30" as="geometry"/>
                </mxCell>
                <mxCell id="319" value="&lt;div&gt;&lt;br&gt;&lt;/div&gt;&lt;div&gt;material_color_id&lt;/div&gt;&lt;div&gt;&lt;br&gt;&lt;/div&gt;#material_id&lt;div&gt;&lt;br&gt;&lt;/div&gt;&lt;div&gt;#color_id&lt;/div&gt;" style="text;html=1;align=center;verticalAlign=middle;whiteSpace=wrap;rounded=0;" vertex="1" parent="1">
                    <mxGeometry x="357" y="1670" width="78" height="60" as="geometry"/>
                </mxCell>
                <mxCell id="320" value="" style="endArrow=none;html=1;entryX=0.5;entryY=1;entryDx=0;entryDy=0;exitX=0;exitY=0.25;exitDx=0;exitDy=0;" edge="1" parent="1" source="254" target="315">
                    <mxGeometry width="50" height="50" relative="1" as="geometry">
                        <mxPoint x="270" y="1830" as="sourcePoint"/>
                        <mxPoint x="320" y="1780" as="targetPoint"/>
                    </mxGeometry>
                </mxCell>
                <mxCell id="321" value="" style="endArrow=none;html=1;entryX=0;entryY=0.75;entryDx=0;entryDy=0;" edge="1" parent="1" target="251">
                    <mxGeometry width="50" height="50" relative="1" as="geometry">
                        <mxPoint x="400" y="1620" as="sourcePoint"/>
                        <mxPoint x="471" y="1560" as="targetPoint"/>
                    </mxGeometry>
                </mxCell>
                <mxCell id="324" value="" style="endArrow=none;html=1;" edge="1" parent="1">
                    <mxGeometry width="50" height="50" relative="1" as="geometry">
                        <mxPoint x="505" y="1212" as="sourcePoint"/>
                        <mxPoint x="575" y="1212" as="targetPoint"/>
                    </mxGeometry>
                </mxCell>
                <mxCell id="328" value="" style="endArrow=none;html=1;" edge="1" parent="1">
                    <mxGeometry width="50" height="50" relative="1" as="geometry">
                        <mxPoint x="351" y="1685" as="sourcePoint"/>
                        <mxPoint x="441" y="1685" as="targetPoint"/>
                    </mxGeometry>
                </mxCell>
                <mxCell id="329" value="MLD" style="text;html=1;align=center;verticalAlign=middle;whiteSpace=wrap;rounded=0;" vertex="1" parent="1">
                    <mxGeometry y="1126" width="60" height="30" as="geometry"/>
                </mxCell>
                <mxCell id="330" value="" style="rounded=0;whiteSpace=wrap;html=1;" vertex="1" parent="1">
                    <mxGeometry x="40" y="2124" width="187.16" height="196" as="geometry"/>
                </mxCell>
                <mxCell id="331" value="" style="endArrow=none;html=1;entryX=1;entryY=0.22;entryDx=0;entryDy=0;entryPerimeter=0;exitX=0.001;exitY=0.22;exitDx=0;exitDy=0;exitPerimeter=0;" edge="1" parent="1" target="330" source="330">
                    <mxGeometry width="50" height="50" relative="1" as="geometry">
                        <mxPoint x="107.16" y="2164" as="sourcePoint"/>
                        <mxPoint x="221.16" y="2163" as="targetPoint"/>
                    </mxGeometry>
                </mxCell>
                <mxCell id="332" value="clients" style="text;html=1;align=center;verticalAlign=middle;whiteSpace=wrap;rounded=0;" vertex="1" parent="1">
                    <mxGeometry x="105" y="2132" width="60" height="30" as="geometry"/>
                </mxCell>
                <mxCell id="333" value="" style="rounded=0;whiteSpace=wrap;html=1;" vertex="1" parent="1">
                    <mxGeometry x="300" y="2110" width="170" height="179" as="geometry"/>
                </mxCell>
                <mxCell id="334" value="" style="endArrow=none;html=1;entryX=1.005;entryY=0.221;entryDx=0;entryDy=0;entryPerimeter=0;" edge="1" parent="1" target="333">
                    <mxGeometry width="50" height="50" relative="1" as="geometry">
                        <mxPoint x="300" y="2150" as="sourcePoint"/>
                        <mxPoint x="360.16" y="2100" as="targetPoint"/>
                    </mxGeometry>
                </mxCell>
                <mxCell id="335" value="orders" style="text;html=1;align=center;verticalAlign=middle;whiteSpace=wrap;rounded=0;" vertex="1" parent="1">
                    <mxGeometry x="340.16" y="2116" width="60" height="30" as="geometry"/>
                </mxCell>
                <mxCell id="336" value="" style="rounded=0;whiteSpace=wrap;html=1;" vertex="1" parent="1">
                    <mxGeometry x="774.16" y="2200" width="145.84" height="263" as="geometry"/>
                </mxCell>
                <mxCell id="337" value="" style="endArrow=none;html=1;entryX=0.998;entryY=0.144;entryDx=0;entryDy=0;entryPerimeter=0;exitX=-0.001;exitY=0.144;exitDx=0;exitDy=0;exitPerimeter=0;" edge="1" parent="1" source="336" target="336">
                    <mxGeometry width="50" height="50" relative="1" as="geometry">
                        <mxPoint x="770.1600000000001" y="2240" as="sourcePoint"/>
                        <mxPoint x="890.28" y="2241.44" as="targetPoint"/>
                    </mxGeometry>
                </mxCell>
                <mxCell id="338" value="boxes" style="text;html=1;align=center;verticalAlign=middle;whiteSpace=wrap;rounded=0;" vertex="1" parent="1">
                    <mxGeometry x="804.1600000000001" y="2206" width="60" height="30" as="geometry"/>
                </mxCell>
                <mxCell id="339" value="client_id VARCHAR(6)&lt;div&gt;&lt;br&gt;&lt;/div&gt;&lt;div&gt;&lt;table style=&quot;background-color: transparent;&quot;&gt;&lt;tbody&gt;&lt;tr&gt;&lt;td&gt;name VARCHAR(255)&lt;/td&gt;&lt;/tr&gt;&lt;/tbody&gt;&lt;/table&gt;&lt;br&gt;&lt;/div&gt;&lt;table&gt;&lt;tbody&gt;&lt;tr&gt;&lt;td&gt;address VARCHAR(255)&lt;/td&gt;&lt;/tr&gt;&lt;/tbody&gt;&lt;/table&gt;&lt;table&gt;&lt;tbody&gt;&lt;tr&gt;&lt;td&gt;&lt;/td&gt;&lt;/tr&gt;&lt;/tbody&gt;&lt;/table&gt;&lt;table&gt;&lt;tbody&gt;&lt;tr&gt;&lt;td&gt;phone VARCHAR(20)&lt;/td&gt;&lt;/tr&gt;&lt;/tbody&gt;&lt;/table&gt;&lt;table&gt;&lt;tbody&gt;&lt;tr&gt;&lt;td&gt;&lt;/td&gt;&lt;/tr&gt;&lt;/tbody&gt;&lt;/table&gt;&lt;div&gt;&lt;table style=&quot;background-color: transparent;&quot;&gt;&lt;tbody&gt;&lt;tr&gt;&lt;td&gt;email VARCHAR(255)&lt;/td&gt;&lt;/tr&gt;&lt;/tbody&gt;&lt;/table&gt;&lt;/div&gt;&lt;table&gt;&lt;tbody&gt;&lt;tr&gt;&lt;td&gt;&lt;/td&gt;&lt;/tr&gt;&lt;/tbody&gt;&lt;/table&gt;" style="text;html=1;align=center;verticalAlign=middle;whiteSpace=wrap;rounded=0;" vertex="1" parent="1">
                    <mxGeometry x="51" y="2179" width="170" height="130" as="geometry"/>
                </mxCell>
                <mxCell id="340" value="order_id INT&lt;div&gt;&lt;font color=&quot;#000000&quot;&gt;&lt;br&gt;&lt;/font&gt;&lt;div&gt;order_date DATETIME&lt;/div&gt;&lt;div&gt;&lt;br&gt;&lt;/div&gt;&lt;div&gt;#client_id VARCHAR(6)&lt;/div&gt;&lt;/div&gt;&lt;div&gt;&lt;br&gt;&lt;/div&gt;&lt;div&gt;total_amount DECIMAL(10,2)&lt;/div&gt;" style="text;html=1;align=center;verticalAlign=middle;whiteSpace=wrap;rounded=0;" vertex="1" parent="1">
                    <mxGeometry x="304" y="2171" width="160" height="100" as="geometry"/>
                </mxCell>
                <mxCell id="341" value="" style="endArrow=none;html=1;" edge="1" parent="1">
                    <mxGeometry width="50" height="50" relative="1" as="geometry">
                        <mxPoint x="56.16" y="2190" as="sourcePoint"/>
                        <mxPoint x="126.16" y="2190" as="targetPoint"/>
                    </mxGeometry>
                </mxCell>
                <mxCell id="342" value="" style="endArrow=none;html=1;" edge="1" parent="1">
                    <mxGeometry width="50" height="50" relative="1" as="geometry">
                        <mxPoint x="336.16" y="2188.62" as="sourcePoint"/>
                        <mxPoint x="406.16" y="2188.62" as="targetPoint"/>
                    </mxGeometry>
                </mxCell>
                <mxCell id="343" value="" style="endArrow=none;html=1;" edge="1" parent="1">
                    <mxGeometry width="50" height="50" relative="1" as="geometry">
                        <mxPoint x="813.0800000000002" y="2271" as="sourcePoint"/>
                        <mxPoint x="883.0800000000002" y="2271" as="targetPoint"/>
                    </mxGeometry>
                </mxCell>
                <mxCell id="344" value="box_id INT&lt;div&gt;&lt;br&gt;&lt;/div&gt;&lt;div&gt;#material_id INT&lt;/div&gt;&lt;div&gt;&lt;br&gt;&lt;/div&gt;&lt;div&gt;#color_id INT&lt;/div&gt;&lt;div&gt;&lt;br&gt;&lt;/div&gt;&lt;div&gt;width INT&lt;/div&gt;&lt;div&gt;&lt;br&gt;&lt;/div&gt;&lt;div&gt;height INT&lt;/div&gt;&lt;div&gt;&lt;br&gt;&lt;/div&gt;&lt;div&gt;length INT&lt;/div&gt;&lt;div&gt;&lt;br&gt;&lt;/div&gt;&lt;table&gt;&lt;tbody&gt;&lt;tr&gt;&lt;td&gt;surface DECIMAL(10,2)&lt;/td&gt;&lt;/tr&gt;&lt;/tbody&gt;&lt;/table&gt;&lt;table&gt;&lt;tbody&gt;&lt;tr&gt;&lt;td&gt;&lt;/td&gt;&lt;/tr&gt;&lt;/tbody&gt;&lt;/table&gt;" style="text;html=1;align=center;verticalAlign=middle;whiteSpace=wrap;rounded=0;" vertex="1" parent="1">
                    <mxGeometry x="775.16" y="2250" width="145.84" height="210" as="geometry"/>
                </mxCell>
                <mxCell id="345" value="" style="endArrow=none;html=1;exitX=1;exitY=0.5;exitDx=0;exitDy=0;entryX=0;entryY=0.5;entryDx=0;entryDy=0;" edge="1" parent="1" source="330" target="333">
                    <mxGeometry width="50" height="50" relative="1" as="geometry">
                        <mxPoint x="229.16" y="2251" as="sourcePoint"/>
                        <mxPoint x="291.16" y="2204" as="targetPoint"/>
                    </mxGeometry>
                </mxCell>
                <mxCell id="346" value="" style="endArrow=none;html=1;exitX=1;exitY=0.5;exitDx=0;exitDy=0;entryX=0;entryY=0.5;entryDx=0;entryDy=0;" edge="1" parent="1" source="333" target="368">
                    <mxGeometry width="50" height="50" relative="1" as="geometry">
                        <mxPoint x="433.16" y="2385" as="sourcePoint"/>
                        <mxPoint x="481.44" y="2134" as="targetPoint"/>
                    </mxGeometry>
                </mxCell>
                <mxCell id="347" value="" style="endArrow=none;html=1;entryX=1;entryY=0.5;entryDx=0;entryDy=0;exitX=0;exitY=0.25;exitDx=0;exitDy=0;" edge="1" parent="1" source="336" target="368">
                    <mxGeometry width="50" height="50" relative="1" as="geometry">
                        <mxPoint x="529.1600000000001" y="2368" as="sourcePoint"/>
                        <mxPoint x="661.1600000000001" y="2224" as="targetPoint"/>
                    </mxGeometry>
                </mxCell>
                <mxCell id="348" value="" style="rounded=0;whiteSpace=wrap;html=1;" vertex="1" parent="1">
                    <mxGeometry x="519.16" y="2434" width="130.84" height="120" as="geometry"/>
                </mxCell>
                <mxCell id="349" value="" style="endArrow=none;html=1;exitX=0;exitY=0.323;exitDx=0;exitDy=0;exitPerimeter=0;entryX=1.001;entryY=0.314;entryDx=0;entryDy=0;entryPerimeter=0;" edge="1" parent="1" source="348" target="348">
                    <mxGeometry width="50" height="50" relative="1" as="geometry">
                        <mxPoint x="569.1600000000001" y="2474" as="sourcePoint"/>
                        <mxPoint x="639.1600000000001" y="2474" as="targetPoint"/>
                    </mxGeometry>
                </mxCell>
                <mxCell id="350" value="materials" style="text;html=1;align=center;verticalAlign=middle;whiteSpace=wrap;rounded=0;" vertex="1" parent="1">
                    <mxGeometry x="549.1600000000001" y="2439" width="60" height="30" as="geometry"/>
                </mxCell>
                <mxCell id="351" value="" style="rounded=0;whiteSpace=wrap;html=1;" vertex="1" parent="1">
                    <mxGeometry x="562.16" y="2713" width="127.84" height="120" as="geometry"/>
                </mxCell>
                <mxCell id="352" value="" style="endArrow=none;html=1;exitX=0;exitY=0.323;exitDx=0;exitDy=0;exitPerimeter=0;entryX=1;entryY=0.321;entryDx=0;entryDy=0;entryPerimeter=0;" edge="1" parent="1" source="351" target="351">
                    <mxGeometry width="50" height="50" relative="1" as="geometry">
                        <mxPoint x="612.1600000000001" y="2753" as="sourcePoint"/>
                        <mxPoint x="682.1600000000001" y="2753" as="targetPoint"/>
                    </mxGeometry>
                </mxCell>
                <mxCell id="353" value="colors" style="text;html=1;align=center;verticalAlign=middle;whiteSpace=wrap;rounded=0;" vertex="1" parent="1">
                    <mxGeometry x="592.1600000000001" y="2718" width="60" height="30" as="geometry"/>
                </mxCell>
                <mxCell id="354" value="material_id INT&lt;div&gt;&lt;br&gt;&lt;/div&gt;&lt;table&gt;&lt;tbody&gt;&lt;tr&gt;&lt;td&gt;type VARCHAR(100)&lt;/td&gt;&lt;/tr&gt;&lt;/tbody&gt;&lt;/table&gt;&lt;table&gt;&lt;tbody&gt;&lt;tr&gt;&lt;td&gt;&lt;/td&gt;&lt;/tr&gt;&lt;/tbody&gt;&lt;/table&gt;" style="text;html=1;align=center;verticalAlign=middle;whiteSpace=wrap;rounded=0;" vertex="1" parent="1">
                    <mxGeometry x="522.16" y="2482" width="130.84" height="65" as="geometry"/>
                </mxCell>
                <mxCell id="355" value="color_id INT&lt;div&gt;&lt;br&gt;&lt;/div&gt;&lt;table&gt;&lt;tbody&gt;&lt;tr&gt;&lt;td&gt;name VARCHAR(100)&lt;/td&gt;&lt;/tr&gt;&lt;/tbody&gt;&lt;/table&gt;&lt;table&gt;&lt;tbody&gt;&lt;tr&gt;&lt;td&gt;&lt;/td&gt;&lt;/tr&gt;&lt;/tbody&gt;&lt;/table&gt;" style="text;html=1;align=center;verticalAlign=middle;whiteSpace=wrap;rounded=0;" vertex="1" parent="1">
                    <mxGeometry x="561" y="2759" width="133" height="67" as="geometry"/>
                </mxCell>
                <mxCell id="356" value="" style="endArrow=none;html=1;entryX=0;entryY=0.75;entryDx=0;entryDy=0;exitX=1.002;exitY=0.192;exitDx=0;exitDy=0;exitPerimeter=0;" edge="1" parent="1" source="348" target="336">
                    <mxGeometry width="50" height="50" relative="1" as="geometry">
                        <mxPoint x="665.1400000000001" y="2530.61" as="sourcePoint"/>
                        <mxPoint x="611.1600000000001" y="2433" as="targetPoint"/>
                    </mxGeometry>
                </mxCell>
                <mxCell id="357" value="" style="endArrow=none;html=1;exitX=1;exitY=0.5;exitDx=0;exitDy=0;entryX=0.5;entryY=1;entryDx=0;entryDy=0;" edge="1" parent="1" source="351" target="336">
                    <mxGeometry width="50" height="50" relative="1" as="geometry">
                        <mxPoint x="621.1600000000001" y="2623" as="sourcePoint"/>
                        <mxPoint x="771.44" y="2474" as="targetPoint"/>
                    </mxGeometry>
                </mxCell>
                <mxCell id="358" value="" style="rounded=0;whiteSpace=wrap;html=1;" vertex="1" parent="1">
                    <mxGeometry x="70" y="2443" width="160" height="240" as="geometry"/>
                </mxCell>
                <mxCell id="359" value="" style="endArrow=none;html=1;entryX=0.994;entryY=0.158;entryDx=0;entryDy=0;entryPerimeter=0;exitX=-0.004;exitY=0.157;exitDx=0;exitDy=0;exitPerimeter=0;" edge="1" parent="1" source="358" target="358">
                    <mxGeometry width="50" height="50" relative="1" as="geometry">
                        <mxPoint x="82.16000000000011" y="2482.98" as="sourcePoint"/>
                        <mxPoint x="202.99999999999991" y="2483.5" as="targetPoint"/>
                    </mxGeometry>
                </mxCell>
                <mxCell id="360" value="pricing" style="text;html=1;align=center;verticalAlign=middle;whiteSpace=wrap;rounded=0;" vertex="1" parent="1">
                    <mxGeometry x="112.88000000000002" y="2449" width="60" height="30" as="geometry"/>
                </mxCell>
                <mxCell id="361" value="pricing_id INT&lt;div&gt;&lt;br&gt;&lt;/div&gt;&lt;div style=&quot;line-height: 100%;&quot;&gt;#material_id INT&lt;/div&gt;&lt;div&gt;&lt;br&gt;&lt;/div&gt;&lt;div style=&quot;line-height: 100%;&quot;&gt;#color_id INT&lt;/div&gt;&lt;div&gt;&lt;br&gt;&lt;/div&gt;&lt;div style=&quot;line-height: 100%;&quot;&gt;quantity INT&lt;/div&gt;&lt;div&gt;&lt;br&gt;&lt;/div&gt;&lt;table style=&quot;line-height: 100%;&quot;&gt;&lt;tbody&gt;&lt;tr&gt;&lt;td&gt;base_price DECIMAL(10,2)&lt;/td&gt;&lt;/tr&gt;&lt;/tbody&gt;&lt;/table&gt;&lt;table&gt;&lt;tbody&gt;&lt;tr&gt;&lt;td&gt;&lt;/td&gt;&lt;/tr&gt;&lt;/tbody&gt;&lt;/table&gt;&lt;span style=&quot;background-color: transparent; line-height: 100%;&quot;&gt;&amp;nbsp;&lt;/span&gt;&lt;table style=&quot;line-height: 100%;&quot;&gt;&lt;tbody&gt;&lt;tr&gt;&lt;td&gt;final_price DECIMAL(10,2)&lt;/td&gt;&lt;/tr&gt;&lt;/tbody&gt;&lt;/table&gt;&lt;table&gt;&lt;tbody&gt;&lt;tr&gt;&lt;td&gt;&lt;/td&gt;&lt;/tr&gt;&lt;/tbody&gt;&lt;/table&gt;" style="text;html=1;align=center;verticalAlign=middle;whiteSpace=wrap;rounded=0;" vertex="1" parent="1">
                    <mxGeometry x="70" y="2494" width="160" height="185" as="geometry"/>
                </mxCell>
                <mxCell id="362" value="" style="endArrow=none;html=1;entryX=1;entryY=0.5;entryDx=0;entryDy=0;exitX=0;exitY=0.5;exitDx=0;exitDy=0;" edge="1" parent="1" source="348" target="358">
                    <mxGeometry width="50" height="50" relative="1" as="geometry">
                        <mxPoint x="256.16" y="2571.5" as="sourcePoint"/>
                        <mxPoint x="191.16" y="2443" as="targetPoint"/>
                    </mxGeometry>
                </mxCell>
                <mxCell id="363" value="" style="endArrow=none;html=1;entryX=0;entryY=0.75;entryDx=0;entryDy=0;exitX=0.5;exitY=1;exitDx=0;exitDy=0;" edge="1" parent="1" source="358" target="351">
                    <mxGeometry width="50" height="50" relative="1" as="geometry">
                        <mxPoint x="151.44" y="2773" as="sourcePoint"/>
                        <mxPoint x="501.16" y="2733" as="targetPoint"/>
                    </mxGeometry>
                </mxCell>
                <mxCell id="364" value="" style="endArrow=none;html=1;exitX=0;exitY=0.5;exitDx=0;exitDy=0;entryX=1;entryY=0.25;entryDx=0;entryDy=0;" edge="1" parent="1" source="336" target="358">
                    <mxGeometry width="50" height="50" relative="1" as="geometry">
                        <mxPoint x="351.16" y="2533" as="sourcePoint"/>
                        <mxPoint x="502.16" y="2413" as="targetPoint"/>
                    </mxGeometry>
                </mxCell>
                <mxCell id="365" value="" style="endArrow=none;html=1;" edge="1" parent="1">
                    <mxGeometry width="50" height="50" relative="1" as="geometry">
                        <mxPoint x="110.16" y="2519" as="sourcePoint"/>
                        <mxPoint x="170.16" y="2519" as="targetPoint"/>
                    </mxGeometry>
                </mxCell>
                <mxCell id="366" value="" style="endArrow=none;html=1;entryX=-0.016;entryY=0.406;entryDx=0;entryDy=0;entryPerimeter=0;" edge="1" parent="1">
                    <mxGeometry width="50" height="50" relative="1" as="geometry">
                        <mxPoint x="611.1600000000001" y="2503" as="sourcePoint"/>
                        <mxPoint x="540.2" y="2502.3900000000003" as="targetPoint"/>
                    </mxGeometry>
                </mxCell>
                <mxCell id="367" value="" style="endArrow=none;html=1;" edge="1" parent="1">
                    <mxGeometry width="50" height="50" relative="1" as="geometry">
                        <mxPoint x="657.1600000000001" y="2780" as="sourcePoint"/>
                        <mxPoint x="594.1600000000001" y="2780" as="targetPoint"/>
                    </mxGeometry>
                </mxCell>
                <mxCell id="368" value="" style="rounded=0;whiteSpace=wrap;html=1;" vertex="1" parent="1">
                    <mxGeometry x="521.44" y="2104" width="168.56" height="190" as="geometry"/>
                </mxCell>
                <mxCell id="369" value="" style="endArrow=none;html=1;entryX=1.007;entryY=0.194;entryDx=0;entryDy=0;entryPerimeter=0;exitX=0.002;exitY=0.218;exitDx=0;exitDy=0;exitPerimeter=0;" edge="1" parent="1" target="368">
                    <mxGeometry width="50" height="50" relative="1" as="geometry">
                        <mxPoint x="521.6800000000001" y="2141.42" as="sourcePoint"/>
                        <mxPoint x="642.04" y="2140.09" as="targetPoint"/>
                    </mxGeometry>
                </mxCell>
                <mxCell id="370" value="order_boxes" style="text;html=1;align=center;verticalAlign=middle;whiteSpace=wrap;rounded=0;" vertex="1" parent="1">
                    <mxGeometry x="578.44" y="2108" width="60" height="30" as="geometry"/>
                </mxCell>
                <mxCell id="371" value="order_box_id INT&lt;div&gt;&lt;br&gt;&lt;/div&gt;&lt;div&gt;#order_id INT&lt;/div&gt;&lt;div&gt;&lt;br&gt;&lt;/div&gt;&lt;div&gt;#box_id INT&lt;/div&gt;&lt;div&gt;&lt;br&gt;&lt;/div&gt;&lt;div&gt;quantity INT&lt;/div&gt;&lt;div&gt;&lt;br&gt;&lt;/div&gt;&lt;table&gt;&lt;tbody&gt;&lt;tr&gt;&lt;td&gt;total_price DECIMAL(10,2)&lt;/td&gt;&lt;/tr&gt;&lt;/tbody&gt;&lt;/table&gt;&lt;table&gt;&lt;tbody&gt;&lt;tr&gt;&lt;td&gt;&lt;/td&gt;&lt;/tr&gt;&lt;/tbody&gt;&lt;/table&gt;&lt;div&gt;&lt;br&gt;&lt;/div&gt;" style="text;html=1;align=center;verticalAlign=middle;whiteSpace=wrap;rounded=0;" vertex="1" parent="1">
                    <mxGeometry x="530.44" y="2169" width="158.56" height="109" as="geometry"/>
                </mxCell>
                <mxCell id="372" value="" style="rounded=0;whiteSpace=wrap;html=1;" vertex="1" parent="1">
                    <mxGeometry x="360" y="2574" width="136.44" height="140" as="geometry"/>
                </mxCell>
                <mxCell id="373" value="" style="endArrow=none;html=1;entryX=1;entryY=0.25;entryDx=0;entryDy=0;exitX=0;exitY=0.25;exitDx=0;exitDy=0;" edge="1" parent="1" source="372">
                    <mxGeometry width="50" height="50" relative="1" as="geometry">
                        <mxPoint x="376.44" y="2610.5" as="sourcePoint"/>
                        <mxPoint x="496.44" y="2610.5" as="targetPoint"/>
                    </mxGeometry>
                </mxCell>
                <mxCell id="374" value="material_colors" style="text;html=1;align=center;verticalAlign=middle;whiteSpace=wrap;rounded=0;" vertex="1" parent="1">
                    <mxGeometry x="408.44" y="2578" width="60" height="30" as="geometry"/>
                </mxCell>
                <mxCell id="375" value="&lt;div&gt;&lt;br&gt;&lt;/div&gt;&lt;div&gt;material_color_id INT&lt;/div&gt;&lt;div&gt;&lt;br&gt;&lt;/div&gt;#material_id INT&lt;div&gt;&lt;br&gt;&lt;/div&gt;&lt;div&gt;#color_id INT&lt;/div&gt;" style="text;html=1;align=center;verticalAlign=middle;whiteSpace=wrap;rounded=0;" vertex="1" parent="1">
                    <mxGeometry x="363" y="2624" width="130" height="60" as="geometry"/>
                </mxCell>
                <mxCell id="376" value="" style="endArrow=none;html=1;entryX=0.5;entryY=1;entryDx=0;entryDy=0;exitX=0;exitY=0.25;exitDx=0;exitDy=0;" edge="1" parent="1" source="351" target="372">
                    <mxGeometry width="50" height="50" relative="1" as="geometry">
                        <mxPoint x="311.44" y="2784" as="sourcePoint"/>
                        <mxPoint x="361.44" y="2734" as="targetPoint"/>
                    </mxGeometry>
                </mxCell>
                <mxCell id="377" value="" style="endArrow=none;html=1;entryX=0;entryY=0.75;entryDx=0;entryDy=0;" edge="1" parent="1" target="348">
                    <mxGeometry width="50" height="50" relative="1" as="geometry">
                        <mxPoint x="441.44" y="2574" as="sourcePoint"/>
                        <mxPoint x="512.44" y="2514" as="targetPoint"/>
                    </mxGeometry>
                </mxCell>
                <mxCell id="378" value="" style="endArrow=none;html=1;" edge="1" parent="1">
                    <mxGeometry width="50" height="50" relative="1" as="geometry">
                        <mxPoint x="562.44" y="2161" as="sourcePoint"/>
                        <mxPoint x="632.44" y="2161" as="targetPoint"/>
                    </mxGeometry>
                </mxCell>
                <mxCell id="379" value="" style="endArrow=none;html=1;" edge="1" parent="1">
                    <mxGeometry width="50" height="50" relative="1" as="geometry">
                        <mxPoint x="370.44" y="2639" as="sourcePoint"/>
                        <mxPoint x="460.44" y="2639" as="targetPoint"/>
                    </mxGeometry>
                </mxCell>
                <mxCell id="380" value="MPD" style="text;html=1;align=center;verticalAlign=middle;whiteSpace=wrap;rounded=0;" vertex="1" parent="1">
                    <mxGeometry x="6" y="2070" width="60" height="30" as="geometry"/>
                </mxCell>
            </root>
        </mxGraphModel>
    </diagram>
</mxfile>